# xmcd
#
# Track frame offsets: 
#        150
#        15642
#        28460
#        45615
#        63080
#        80345
#        106421
#        122659
#        141802
#        155418
#        174761
#        195347
#        227437
#        258999
#        279933
#        299979
#        335236
#
# Disc length: 4723 seconds
#
# Revision: 0
# Processed by: cddbd v1.5.2PL0 Copyright (c) Steve Scherf et al.
# Submitted via: ExactAudioCopy v1.0b3
#
DISCID=ec127111
DTITLE=Various Artist - DeeJay Parade Vol. 6 - CD 1
DYEAR=1900
DGENRE=
TTITLE0=Floorfilla - Anthem #5 (Enter The Arena) (Airplay Edit)
TTITLE1=Mario Lopez - Blind (CJ Stone Meets Mr. Philips Radio Cut)
TTITLE2=Norman Bass - How U Like Bass? (Warp Brothers Single Mix)
TTITLE3=DJ Visage - Rock That Sound! (Airplay Mix)
TTITLE4=Voi Feat. DJ Frost and Talla 2XLC - Maid Of Orleans (Joan Of Arc
TTITLE4=Mix Edit)
TTITLE5=Joman - Raggattak (Raggattak Mix)
TTITLE6=FFM - Ugly... (Video Mix)
TTITLE7=DJ Rock - The Big Beat
TTITLE8=FMF Greg @ SMP - False Witness (Radio Cut)
TTITLE9=Cyrus Cole - Frischluft
TTITLE10=De Vargas - The Train (Calderone Mix Edit)
TTITLE11=Rockshock - Murdersound (A. Krämer Rmx)
TTITLE12=Native - Feel The Drums (Public Domain Rmx)
TTITLE13=Dare Devils - ! Daredevil !
TTITLE14=Legend B. - Voyage
TTITLE15=Tony Walker - Field Of Joy (Flutlicht Remix)
TTITLE16=DJ Session One Meets Manuel Oettl - Trip To Africa
EXTD=
EXTT0=
EXTT1=
EXTT2=
EXTT3=
EXTT4=
EXTT5=
EXTT6=
EXTT7=
EXTT8=
EXTT9=
EXTT10=
EXTT11=
EXTT12=
EXTT13=
EXTT14=
EXTT15=
EXTT16=
PLAYORDER=
